<svg xmlns="http://www.w3.org/2000/svg" viewBox="0 0 64 64">
  <defs>
    <linearGradient id="cpFavBg" x1="10" x2="54" y1="10" y2="54" gradientUnits="userSpaceOnUse">
      <stop offset="0" stop-color="#0A4FB3" />
      <stop offset="0.55" stop-color="#0A76C8" />
      <stop offset="1" stop-color="#11C5D9" />
    </linearGradient>
  </defs>

  <circle cx="32" cy="32" r="28" fill="url(#cpFavBg)" />
  <circle cx="32" cy="32" r="26" fill="none" stroke="#E8FCFF" stroke-opacity="0.9" stroke-width="2.5" />

  <path
    d="M23 19.5h14.5c2.5 0 4.5 1.9 4.5 4.3v16.9c0 2.3-1.9 4.3-4.3 4.3H24.1c-2.3 0-4.1-1.9-4.1-4.3V23.8c0-2.4 2-4.3 4.5-4.3Z"
    fill="#F8FDFF"
  />
  <path
    d="M27 20.6v23.1M39.8 24.3c-3.6-1-7.1-.4-10.4 1.8v12.5c3.3-2.2 6.8-2.8 10.4-1.8"
    fill="none"
    stroke="#0C4EA3"
    stroke-linecap="round"
    stroke-linejoin="round"
    stroke-width="3.1"
  />
  <path
    d="M24.8 27.4 21.8 29.5l3 2.1M39.2 31.6l3-2.1-3-2.1"
    fill="none"
    stroke="#14BED3"
    stroke-linecap="round"
    stroke-linejoin="round"
    stroke-width="2.9"
  />
  <path
    d="M33 28.2h4.2M33 32h4M33 35.8h4.6"
    fill="none"
    stroke="#14BED3"
    stroke-linecap="round"
    stroke-width="2.7"
  />
</svg>
